<svg xmlns="http://www.w3.org/2000/svg" xmlns:xlink="http://www.w3.org/1999/xlink" width="100" height="100" viewBox="0 0 100 100"><g><g transform="translate(50 50) scale(0.69 0.69) rotate(0) translate(-50 -50)" style="fill:#000000"><svg fill="#000000" xmlns="http://www.w3.org/2000/svg" xmlns:xlink="http://www.w3.org/1999/xlink" version="1.1" x="0px" y="0px" viewBox="0 0 66 66" enable-background="new 0 0 66 66" xml:space="preserve"><g><path d="M62.4,13.4c0.1-4.7-4.5-8-8.9-6.5c0.3-0.2,0.5-0.4,0.8-0.7c-0.8,0-1.5,0.1-2.2,0.4c0.2-0.2,0.5-0.4,0.7-0.5   c-0.6,0.2-1.2,0.3-1.9,0.5c0.2-0.3,0.4-0.5,0.5-0.8c-1.8-0.1-3.3,0.8-4.4,2.3c0,0,0,0,0,0c-1.1,1.4-1.8,3.3-2.1,4.9   c-0.1-0.1-0.3-0.2-0.4-0.3c-0.8-1.8-2.2-3.4-4-4.2C41.1,8.1,41.7,8,42.3,8c-1.2-0.4-2.6-0.4-3.7,0.2c1.2-1.8,3.4-2.8,5.5-2.7   c-1.7-0.7-3.6-0.6-5.2,0.2c0.5-0.5,1.1-0.9,1.6-1.4c-0.9,0.4-1.8,0.9-2.7,1.3c0.7-1.3,1.8-2.4,3.2-3c-2.2,0.3-4.3,1.8-5.2,3.8   c-0.8-1.5-0.8-3.3,0-4.8c-1.1,0.6-1.9,1.7-2.1,2.9c-0.2-1.5-1.2-2.8-2.5-3.5c1.1,1,1.1,2.6,0.8,4.1c-1.1-1.1-1.8-2.6-2-4.2   c-0.7,1.7,0.8,3.3,0.1,5.4c-0.9-2-3-3.5-5.1-3.7c1.3,0.6,2.5,1.7,3.2,3c-0.9-0.4-1.8-0.9-2.7-1.3c0.5,0.5,1.1,0.9,1.6,1.4   c-1.6-0.8-3.5-0.9-5.2-0.2c2.1-0.1,4.3,1,5.5,2.7c-1.2-0.5-2.5-0.6-3.7-0.2c0.6,0,1.2,0.1,1.8,0.4c-1.8,0.8-3.2,2.4-4,4.2   c-0.1,0.1-0.3,0.2-0.4,0.3c-0.7-3.3-3-7.4-6.6-7.1C14.7,6,14.9,6.2,15,6.5c-0.6-0.1-1.2-0.3-1.9-0.5c0.2,0.2,0.5,0.4,0.7,0.5   c-0.7-0.2-1.5-0.4-2.2-0.4c0.3,0.2,0.6,0.4,0.8,0.7c-4.4-1.5-9,1.8-8.9,6.5c0.3-0.1,0.5-0.4,0.5-0.8c0,0.3,0,0.6-0.1,0.9   c0.2-0.2,0.4-0.5,0.4-0.8c0,0.2,0,0.3,0,0.5c0.1-0.7,0.5-1.3,1-1.8c-0.3,0.6-0.2,1-0.2,1.4c3.5-0.7,4.9,2.7,5.4,3.3   c0.7,1,1.2,1.1,1.6,1.3h0c1.1,0.9,2.3,1.5,3.6,1.6c-0.9,1.9-1.5,3.9-1.6,6c-0.1,1.6,0.1,3.7,0.4,5.9c-0.6,0.5-1.1,1.1-1.5,1.7   c0.2-0.1,0.3-0.1,0.5-0.2c-0.2,0.3-0.4,0.5-0.7,0.8c0.1,0,0.2,0,0.3-0.1c-1,1-1.9,2.2-2.6,3.5c0.2-0.1,0.3-0.3,0.5-0.4   c-0.3,0.3-0.4,0.7-0.5,1.1c0.2-0.1,0.3-0.3,0.4-0.5c-0.1,0.2-0.2,0.4-0.3,0.7c0.1-0.1,0.2-0.2,0.3-0.3c-0.9,1.9-1.7,3.8-2.3,5.8   C9,43,9.2,42.7,9.4,42.5c-0.5,1.4-0.8,2.8-1,4.2c0.2-0.3,0.3-0.4,0.5-0.6c-0.4,1.2-0.9,2.4-0.9,3.6c-0.2,4.8,5.6,5.6,6.4,2.6   c0.2-0.8-0.3-1.6-0.6-2.4c0.3,0.2,0.6,0.3,0.9,0.2c0.8,0,1.2-0.9-0.1-1.3c-2.7-0.8-2.9-8.7,0.9-14.6c0.9,4,2.5,8.4,4.4,12.4   c2,5.4,4,10.3,4.3,14.9c-3.2-1.9-6.5-1.3-8.8,1.1c-0.5,0.5-0.3,1.4,0.4,1.6c2.8,0.7,5.6,0.9,8.5,0.6c2-0.2,2.6-0.9,2.9-2.4   c0.4-1.8,0.6-3.7,0.9-5.6c1.6,1,3.2,1.5,4.9,1.5c1.7,0,3.4-0.6,4.9-1.5c0.2,1.9,0.5,3.7,0.9,5.6c0.3,1.6,0.9,2.3,2.9,2.4   c2.8,0.3,5.7,0.1,8.5-0.6c0.7-0.2,1-1.1,0.5-1.6c-2.3-2.4-5.6-3-8.8-1.1c0.3-4.6,2.3-9.4,4.3-14.9c2-3.9,3.5-8.3,4.5-12.4   c3.8,5.9,3.6,13.8,0.9,14.6c-1.3,0.4-0.9,1.3-0.1,1.3c0.3,0,0.6-0.1,0.9-0.2c-0.4,0.8-0.9,1.5-0.6,2.4c0.8,3,6.6,2.3,6.4-2.6   c0-1.3-0.5-2.5-0.9-3.6c0.2,0.3,0.3,0.4,0.5,0.6c-0.2-1.5-0.5-2.9-1-4.2c0.2,0.2,0.3,0.5,0.5,0.7c-0.6-2-1.4-4-2.3-5.8   c0.1,0.1,0.2,0.2,0.3,0.3c-0.1-0.2-0.2-0.5-0.3-0.7c0.1,0.2,0.3,0.3,0.4,0.5c-0.1-0.4-0.2-0.8-0.5-1.1c0.2,0.1,0.3,0.3,0.5,0.4   c-0.7-1.3-1.6-2.5-2.6-3.5c0.1,0,0.2,0,0.3,0.1c-0.2-0.3-0.5-0.5-0.7-0.8c0.1,0.1,0.3,0.1,0.5,0.2c-0.5-0.6-1-1.1-1.5-1.7   c0.4-2.3,0.5-4.3,0.4-5.9c-0.1-2.2-0.7-4.2-1.6-6c1.3-0.1,2.5-0.7,3.6-1.6h0l0,0c2.2-0.4,2.4-5.5,7-4.6c0.1-0.5,0-1-0.2-1.4   c0.5,0.5,0.9,1.1,1,1.8c0-0.2,0-0.3,0-0.5c0,0.3,0.2,0.6,0.4,0.8c0-0.5,0-0.7-0.1-0.8C61.9,12.8,62,13.2,62.4,13.4z M40.1,42   c0.3,0.2,1.3,0.8,1.5,1.3c0,0,0,0,0,0c0,0,0,0,0,0c0,0,0,0,0,0.1c0.2,0.7-0.4,2.2-1.5,1.7c-0.1-0.1-0.6-0.2-1.6-1.1   c-0.4,0.4-0.8,0.7-1.3,1c0.3,0.2,2.3,1.4,2,2.1c-0.2,0.8-1.9,1.8-2.8,1.7c-0.9-0.1-1.3-2.3-1.4-2.8c-0.6,0.2-1.3,0.3-2,0.3   c0.1,2.7-0.4,2.9-0.5,3c-0.2,0.3-0.6,0.4-1.1,0.4c-0.8,0-1.7-0.4-2-1c-0.2-0.3-0.1-1.1,0.8-2.9c-0.7-0.3-1.3-0.6-1.9-1.1   c-0.4,0.4-1.7,1.6-2.3,1.5c-0.7-0.1-1.2-1.1-1.1-1.8c0.1-0.5,1.2-1.2,1.6-1.5c-1.2-1.5-2.1-3.3-2.5-5.2c1.7,3.7,4.9,7.4,8.9,7.4   c4,0.1,7.2-3.7,8.9-7.4C41.6,39.3,40.9,40.7,40.1,42z M46.4,28.2c-0.6,4-4.2,6.8-8.2,6.3c-2.4-0.3-4.3-1.8-5.4-3.7   c-0.9,1.3-2.4,2.2-4,2.4c-3.3,0.5-6.3-1.8-6.7-5.1c-0.5-3.3,1.8-6.3,5.1-6.7c2.3-0.3,4.4,0.7,5.6,2.4c1.4-2.6,4.3-4.2,7.5-3.8   C44.2,20.5,47,24.2,46.4,28.2z"></path><path d="M40.5,27c-0.6,0-1.1-0.5-1.1-1.1c0-0.4,0.2-0.7,0.5-0.9c-0.3-0.1-0.6-0.2-0.9-0.2c-1.4,0-2.5,1.1-2.5,2.5   c0,1.4,1.1,2.5,2.5,2.5c1.4,0,2.5-1.1,2.5-2.5c0-0.3-0.1-0.5-0.1-0.8C41.2,26.8,40.9,27,40.5,27z M38.3,28.4   c-0.3,0-0.6-0.3-0.6-0.6c0-0.3,0.3-0.6,0.6-0.6c0.3,0,0.6,0.3,0.6,0.6C38.9,28.1,38.6,28.4,38.3,28.4z"></path><path d="M29.2,27.1c-0.5,0-0.9-0.4-0.9-0.9c0-0.3,0.2-0.6,0.4-0.7c-0.2-0.1-0.5-0.1-0.7-0.1c-1.1,0-2,0.9-2,2c0,1.1,0.9,2,2,2   c1.1,0,2-0.9,2-2c0-0.2,0-0.4-0.1-0.6C29.8,27,29.5,27.1,29.2,27.1z M27.4,28.2c-0.3,0-0.5-0.2-0.5-0.5c0-0.3,0.2-0.5,0.5-0.5   c0.3,0,0.5,0.2,0.5,0.5C27.9,28,27.7,28.2,27.4,28.2z"></path></g></svg></g></g></svg>